<svg width="124" height="124" viewBox="0 0 124 124" fill="none" xmlns="http://www.w3.org/2000/svg">
<path fill-rule="evenodd" clip-rule="evenodd" d="M91.76 58.1463C94.6456 59.8123 94.6456 63.9772 91.76 65.6432L50.2083 89.633C47.3228 91.299 43.7159 89.2166 43.7159 85.8846L43.7159 37.9048C43.7159 34.5729 47.3228 32.4905 50.2083 34.1564L91.76 58.1463ZM52.3725 45.4017L80.9393 61.8947L52.3725 78.3878L52.3725 45.4017Z" fill="white"/>
<path fill-rule="evenodd" clip-rule="evenodd" d="M61.8947 123.789C96.0783 123.789 123.789 96.0783 123.789 61.8947C123.789 27.7112 96.0783 0 61.8947 0C27.7112 0 0 27.7112 0 61.8947C0 96.0783 27.7112 123.789 61.8947 123.789ZM61.8947 114.813C32.6687 114.813 8.97639 91.1207 8.97639 61.8947C8.97639 32.6687 32.6687 8.97639 61.8947 8.97639C91.1207 8.97639 114.813 32.6687 114.813 61.8947C114.813 91.1207 91.1207 114.813 61.8947 114.813Z" fill="white"/>
</svg>
