<svg width="24" height="24" viewBox="0 0 24 24" fill="none" xmlns="http://www.w3.org/2000/svg">
<path d="M20.475 23.3L17.525 20.35C16.725 20.8833 15.8627 21.2917 14.938 21.575C14.0134 21.8583 13.034 22 12 22C10.6167 22 9.31672 21.7373 8.10005 21.212C6.88338 20.6867 5.82505 19.9743 4.92505 19.075C4.02505 18.175 3.31272 17.1167 2.78805 15.9C2.26338 14.6833 2.00072 13.3833 2.00005 12C2.00005 10.9667 2.14172 9.98733 2.42505 9.062C2.70838 8.13667 3.11672 7.27467 3.65005 6.476L0.675049 3.5L2.10005 2.075L21.9 21.875L20.475 23.3ZM11 19.95V18C10.45 18 9.97905 17.8043 9.58705 17.413C9.19505 17.0217 8.99938 16.5507 9.00005 16V15L4.20005 10.2C4.15005 10.5 4.10405 10.8 4.06205 11.1C4.02005 11.4 3.99938 11.7 4.00005 12C4.00005 14.0167 4.66272 15.7833 5.98805 17.3C7.31338 18.8167 8.98405 19.7 11 19.95ZM20.35 17.475L18.9 16.025C19.25 15.4083 19.521 14.7627 19.713 14.088C19.905 13.4133 20.0007 12.7173 20 12C20 10.3667 19.5457 8.875 18.637 7.525C17.7284 6.175 16.516 5.2 15 4.6V5C15 5.55 14.804 6.021 14.412 6.413C14.02 6.805 13.5494 7.00067 13 7H11V8.125L6.52505 3.65C7.32505 3.13333 8.18338 2.72933 9.10005 2.438C10.0167 2.14667 10.9834 2.00067 12 2C13.3834 2 14.6834 2.26267 15.9 2.788C17.1167 3.31333 18.1751 4.02567 19.0751 4.925C19.975 5.825 20.6877 6.88333 21.213 8.1C21.7384 9.31667 22.0007 10.6167 22 12C22 13.0167 21.854 13.9833 21.562 14.9C21.2701 15.8167 20.8661 16.675 20.35 17.475Z" fill="#969696"/>
</svg>
