<svg width="24" height="24" viewBox="0 0 24 24" fill="none" xmlns="http://www.w3.org/2000/svg">
<path d="M1.5 1.5V12H22.5V1.5H1.5ZM3.87563 15.0797C3.21703 15.0797 2.74266 15.1266 2.43516 15.2203C2.12719 15.3141 1.99266 15.4219 1.87594 15.6234C1.8075 15.7406 1.75594 15.9141 1.71609 16.1344C1.94484 16.1672 2.15484 16.2047 2.34797 16.2656C2.81672 16.4062 3.19969 16.6875 3.43078 17.0766C3.66188 16.6875 4.04391 16.4062 4.51266 16.2656C4.93125 16.1391 5.42344 16.0875 6.03281 16.0781C5.99531 15.8813 5.94844 15.7312 5.88281 15.6234C5.76562 15.4219 5.62969 15.3141 5.32031 15.2203C5.01094 15.1266 4.53563 15.0797 3.87563 15.0797ZM9.29062 15.0797C8.62969 15.0797 8.15625 15.1266 7.85156 15.2203C7.54219 15.3141 7.40625 15.4219 7.28906 15.6234C7.22344 15.7359 7.17187 15.8953 7.13437 16.1063C7.48594 16.1344 7.79062 16.1813 8.0625 16.2656C8.53125 16.4062 8.91563 16.6828 9.14531 17.0766C9.375 16.6828 9.75469 16.4062 10.2281 16.2656C10.575 16.1578 10.9734 16.1063 11.4469 16.0875C11.4094 15.8906 11.3625 15.7359 11.2969 15.6234C11.1797 15.4219 11.0437 15.3141 10.7344 15.2203C10.425 15.1266 9.95156 15.0797 9.29062 15.0797ZM14.7047 15.0797C14.0438 15.0797 13.5703 15.1266 13.2656 15.2203C12.9563 15.3141 12.8203 15.4219 12.7031 15.6234C12.6375 15.7359 12.5906 15.8906 12.5531 16.0875C13.0266 16.1063 13.4297 16.1578 13.7766 16.2656C14.2453 16.4062 14.6297 16.6828 14.8594 17.0766C15.0891 16.6828 15.4688 16.4062 15.9422 16.2656C16.2141 16.1813 16.5187 16.1344 16.8656 16.1063C16.8281 15.8953 16.7766 15.7359 16.7109 15.6234C16.5938 15.4219 16.4578 15.3141 16.1484 15.2203C15.8391 15.1266 15.3656 15.0797 14.7047 15.0797ZM20.1188 15.0797C19.4578 15.0797 18.9844 15.1266 18.6797 15.2203C18.3703 15.3141 18.2344 15.4219 18.1172 15.6234C18.0516 15.7312 18.0047 15.8813 17.9672 16.0781C18.5812 16.0875 19.0734 16.1391 19.4906 16.2656C19.9594 16.4062 20.3437 16.6828 20.5734 17.0766C20.8031 16.6828 21.1828 16.4062 21.6562 16.2656C21.8484 16.2047 22.0594 16.1672 22.2844 16.1344C22.2469 15.9141 22.1953 15.7406 22.125 15.6234C22.0078 15.4219 21.8719 15.3141 21.5625 15.2203C21.2531 15.1266 20.7797 15.0797 20.1188 15.0797ZM6.28594 16.9219C5.5875 16.9219 5.08594 16.9688 4.75781 17.0719C4.43016 17.1703 4.28109 17.2875 4.15406 17.5125C4.03547 17.7188 3.96375 18.0656 3.91969 18.5578C4.42313 18.5766 4.84219 18.6234 5.20312 18.7359C5.67188 18.8766 6.05625 19.1531 6.28594 19.5469C6.51563 19.1531 6.89531 18.8766 7.36875 18.7359C7.72969 18.6234 8.15156 18.5719 8.65781 18.5578C8.61094 18.0656 8.54062 17.7188 8.42344 17.5125C8.29687 17.2922 8.14687 17.1703 7.81406 17.0719C7.48594 16.9688 6.98438 16.9219 6.28594 16.9219ZM12 16.9219C11.3016 16.9219 10.8 16.9688 10.4719 17.0719C10.1437 17.1703 9.99375 17.2875 9.86719 17.5125C9.75 17.7188 9.67969 18.0656 9.63281 18.5578C10.1391 18.5766 10.5562 18.6234 10.9172 18.7359C11.3859 18.8766 11.7703 19.1531 12 19.5469C12.2297 19.1531 12.6094 18.8766 13.0828 18.7359C13.4438 18.6234 13.8656 18.5719 14.3719 18.5578C14.325 18.0656 14.2547 17.7188 14.1375 17.5125C14.0109 17.2922 13.8609 17.1703 13.5281 17.0719C13.2 16.9688 12.6984 16.9219 12 16.9219ZM17.7141 16.9219C17.0156 16.9219 16.5141 16.9688 16.1859 17.0719C15.8578 17.1703 15.7078 17.2875 15.5812 17.5125C15.4641 17.7188 15.3937 18.0656 15.3469 18.5578C15.8531 18.5766 16.2703 18.6234 16.6312 18.7359C17.1 18.8766 17.4844 19.1531 17.7141 19.5469C17.9437 19.1531 18.3234 18.8766 18.7969 18.7359C19.1578 18.6234 19.5797 18.5719 20.0859 18.5578C20.0391 18.0656 19.9688 17.7188 19.8516 17.5125C19.725 17.2922 19.575 17.1703 19.2422 17.0719C18.9141 16.9688 18.4125 16.9219 17.7141 16.9219ZM0.84375 16.9266V19.2C1.06125 18.9891 1.33781 18.8297 1.65375 18.7359C2.0175 18.6234 2.4375 18.5719 2.94234 18.5578C2.89875 18.0656 2.82609 17.7188 2.70797 17.5125C2.58094 17.2922 2.43141 17.1703 2.10188 17.0719C1.81734 16.9828 1.40156 16.9359 0.84375 16.9266ZM23.1562 16.9266C22.5984 16.9359 22.1813 16.9828 21.9 17.0719C21.5719 17.1703 21.4219 17.2875 21.2953 17.5125C21.1781 17.7188 21.1078 18.0656 21.0609 18.5578C21.5672 18.5766 21.9844 18.6234 22.3453 18.7359C22.6594 18.8297 22.9359 18.9891 23.1562 19.2V16.9266ZM3.42656 19.3922C2.73094 19.3922 2.22844 19.4391 1.90031 19.5422C1.57172 19.6406 1.42312 19.7578 1.29609 19.9828C1.065 20.3859 1.00781 21.3187 0.999375 22.8281H5.85938C5.85 21.3187 5.79375 20.3859 5.56406 19.9828C5.4375 19.7625 5.2875 19.6406 4.95469 19.5422C4.6275 19.4391 4.12406 19.3922 3.42656 19.3922ZM9.14062 19.3922C8.44219 19.3922 7.94062 19.4391 7.6125 19.5422C7.28437 19.6406 7.13438 19.7578 7.00781 19.9828C6.77812 20.3859 6.72187 21.3187 6.7125 22.8281H11.5734C11.5641 21.3187 11.5078 20.3859 11.2781 19.9828C11.1516 19.7625 11.0016 19.6406 10.6688 19.5422C10.3406 19.4391 9.83906 19.3922 9.14062 19.3922ZM14.8547 19.3922C14.1562 19.3922 13.6547 19.4391 13.3266 19.5422C12.9984 19.6406 12.8484 19.7578 12.7219 19.9828C12.4922 20.3859 12.4359 21.3187 12.4266 22.8281H17.2875C17.2781 21.3187 17.2219 20.3859 16.9922 19.9828C16.8656 19.7625 16.7156 19.6406 16.3828 19.5422C16.0547 19.4391 15.5531 19.3922 14.8547 19.3922ZM20.5687 19.3922C19.875 19.3922 19.3688 19.4391 19.0406 19.5422C18.7125 19.6406 18.5625 19.7578 18.4359 19.9828C18.2062 20.3859 18.15 21.3187 18.1406 22.8281H23.0016C22.9922 21.3187 22.9359 20.3859 22.7062 19.9828C22.5797 19.7625 22.4297 19.6406 22.0969 19.5422C21.7687 19.4391 21.2672 19.3922 20.5687 19.3922Z" fill="black"/>
</svg>
